<svg width="654" height="527" viewBox="0 0 654 527" fill="none" xmlns="http://www.w3.org/2000/svg">
<g id="Group 1">
<g id="draw 1" filter="url(#filter0_d)">
<g id="person">
<path id="Vector" d="M356.612 144.536C389.463 144.536 416.094 119.744 416.094 89.1617C416.094 58.5793 389.463 33.7874 356.612 33.7874C323.76 33.7874 297.129 58.5793 297.129 89.1617C297.129 119.744 323.76 144.536 356.612 144.536Z" fill="#A0616A"/>
<path id="Vector_2" d="M312.215 116.849C312.215 116.849 323.422 195.496 306.181 204.324C288.94 213.152 408.767 213.955 408.767 213.955C408.767 213.955 382.043 145.74 394.111 124.874L312.215 116.849Z" fill="#A0616A"/>
<path id="Vector_3" d="M307.128 36.7827L296.006 32.6377C296.006 32.6377 319.261 8.80397 351.615 10.8766L342.515 1.55022C342.515 1.55022 364.759 -6.7397 384.98 15.0215C395.61 26.4608 407.909 39.9072 415.576 55.0544H427.487L422.516 65.2441L439.914 75.4339L422.056 73.6036C423.12 79.1836 423.284 84.8802 422.541 90.5052C421.775 96.1318 418.691 101.261 413.939 104.811V104.811C413.939 104.811 400.146 78.2326 400.146 74.0876V84.4501C400.146 84.4501 389.024 75.1239 389.024 68.9064L382.958 76.1601L379.925 64.7613L342.515 76.1601L348.582 66.834L325.327 69.9427L334.427 58.5439C334.427 58.5439 308.139 72.0151 307.128 83.414C306.117 94.8126 298.422 105.614 298.422 105.614C298.422 105.614 277.807 52.3264 307.128 36.7827Z" fill="#2F2E41"/>
<path id="Vector_4" d="M560.92 408.564C554.861 414.679 539.848 423.888 521.648 433.858C514.878 437.563 507.671 441.381 500.318 445.176C482.773 454.235 464.403 463.211 449.245 470.463C429.524 479.898 415.231 486.412 415.231 486.412C415.231 486.412 414.001 480.674 412.02 473.332C409.366 463.505 405.37 450.801 401.205 445.176C401.059 444.981 400.913 444.8 400.768 444.619C399.555 443.136 398.333 442.27 397.128 442.27L457.325 407.533L483.339 392.517L464.597 350.868L441.091 298.623L455.279 256.597L469.54 214.352H496.265C496.265 214.352 505.114 232.335 516.431 257.41C518.121 261.16 519.869 265.068 521.648 269.105C544.928 321.816 573.951 395.424 560.92 408.564Z" fill="#D0CDE1"/>
<path id="Vector_5" d="M496.265 214.352L486.3 256.597L465.228 345.973L464.597 350.868L457.325 407.533L452.488 445.176L449.245 470.463C429.524 479.898 415.231 486.412 415.231 486.412C415.231 486.412 414.001 480.674 412.02 473.332C398.179 477.195 372.57 483.603 350.868 484.883C358.77 493.084 362.402 500.787 357.476 506.472C342.609 523.611 281.23 487.707 259.763 474.318C259.263 477.524 259.073 480.765 259.196 484.002L242.768 472.24L244.394 445.176L247.136 399.385L250.582 341.959C249.495 339.501 248.584 336.978 247.856 334.407C242.824 317.75 236.717 284.489 232.034 256.597C228.264 234.149 225.433 215.181 224.835 211.144C224.754 210.617 224.713 210.346 224.713 210.346L315.657 172.936C322.12 186.89 352.299 191.084 352.299 191.084C377.302 189.48 396.901 177.206 396.901 177.206L496.265 214.352Z" fill="#D0CDE1"/>
<path id="Vector_6" d="M357.476 506.472C342.609 523.611 281.23 487.707 259.763 474.318C255.087 471.404 252.305 469.559 252.305 469.559L271.944 445.176L278.165 437.458C278.165 437.458 283.73 440.206 291.956 444.679C292.256 444.845 292.555 445.011 292.862 445.176C299.956 449.054 308.862 454.122 317.849 459.777C330.249 467.586 342.787 476.494 350.868 484.883C358.77 493.084 362.402 500.787 357.476 506.472Z" fill="#A0616A"/>
<path id="Vector_7" d="M291.956 444.679C289.761 444.671 287.569 444.838 285.404 445.176C266.808 448.151 261.324 463.821 259.763 474.318C259.263 477.524 259.073 480.765 259.196 484.002L242.768 472.24L236.782 467.955C222.376 463.279 209.539 454.973 198.408 445.176C188.753 436.527 180.091 426.965 172.564 416.644C165.067 406.472 158.384 395.801 152.569 384.716C150.946 381.623 150.074 378.235 150.014 374.793C149.954 371.352 150.707 367.939 152.221 364.799L172.564 322.592L202.299 260.904C202.517 259.436 202.757 258 203.019 256.597C208.916 225.121 224.713 211.144 224.713 211.144H236.782L244.855 256.597L254.885 313.066L247.856 334.407L231.613 383.692L247.136 399.385L291.956 444.679Z" fill="#D0CDE1"/>
<path id="Vector_8" d="M422.131 470.365C422.131 470.365 418.28 471.592 412.019 473.332C398.179 477.195 372.57 483.603 350.868 484.883C332.182 485.998 316.393 483.317 313.505 471.969C312.267 467.089 314.023 463.076 317.849 459.777C329.27 449.92 359.102 446.389 382.762 445.176C389.443 444.837 395.623 444.679 400.768 444.619C409.504 444.514 415.231 444.679 415.231 444.679L415.368 445.176L422.131 470.365Z" fill="#A0616A"/>
</g>
<g id="computer">
<path id="Vector_9" d="M511.735 304.791H377.101V302.207H316.053V304.791H180.864C178.449 304.791 176.132 305.684 174.425 307.274C172.717 308.864 171.757 311.02 171.757 313.269V484.891C171.757 487.14 172.717 489.296 174.425 490.886C176.132 492.476 178.449 493.369 180.864 493.369H511.735C514.15 493.369 516.466 492.476 518.174 490.886C519.882 489.296 520.842 487.14 520.842 484.891V313.269C520.842 312.155 520.606 311.053 520.148 310.024C519.691 308.996 519.02 308.061 518.174 307.274C517.329 306.487 516.325 305.862 515.22 305.436C514.115 305.01 512.931 304.791 511.735 304.791V304.791Z" fill="#3F3D56"/>
<path id="Vector_10" d="M346.564 383.534C357.733 383.534 366.786 375.105 366.786 364.708C366.786 354.311 357.733 345.883 346.564 345.883C335.396 345.883 326.342 354.311 326.342 364.708C326.342 375.105 335.396 383.534 346.564 383.534Z" stroke="#D0CDE1" stroke-width="2" stroke-miterlimit="10"/>
<path id="Vector_11" d="M340.093 390.311C351.262 390.311 360.315 381.883 360.315 371.486C360.315 361.088 351.262 352.66 340.093 352.66C328.925 352.66 319.871 361.088 319.871 371.486C319.871 381.883 328.925 390.311 340.093 390.311Z" fill="#D0CDE1"/>
<path id="Vector_12" d="M305.615 313.111L315.933 324.317C319.766 323.636 323.769 322.837 327.892 321.939L324.928 313.111L332.174 320.981C375.852 310.98 429.99 291.536 429.99 291.536C429.99 291.536 371.542 295.526 327.902 286.65C308.593 282.723 288.727 291.634 280.803 308.49C276.198 318.287 276.921 326.775 293.255 326.775C298.774 326.687 304.278 326.205 309.718 325.334L305.615 313.111Z" fill="#F9A826"/>
<path id="Vector_13" d="M540.819 497.285V501.856C540.822 503.111 540.572 504.355 540.083 505.524C539.865 506.045 539.603 506.548 539.298 507.03C538.334 508.536 536.966 509.783 535.328 510.649C533.69 511.515 531.839 511.97 529.955 511.969H168.746C166.863 511.97 165.011 511.515 163.374 510.649C161.736 509.783 160.368 508.536 159.404 507.03C159.099 506.548 158.836 506.045 158.619 505.524C158.13 504.355 157.88 503.111 157.883 501.856V497.285C157.883 495.957 158.163 494.642 158.709 493.415C159.255 492.188 160.055 491.073 161.064 490.134C162.073 489.194 163.271 488.45 164.589 487.941C165.907 487.433 167.32 487.172 168.746 487.172H189.567V485.041C189.567 484.986 189.579 484.931 189.601 484.88C189.624 484.829 189.658 484.782 189.7 484.743C189.742 484.704 189.792 484.673 189.847 484.651C189.902 484.63 189.961 484.62 190.02 484.62H200.884C200.943 484.62 201.002 484.63 201.057 484.651C201.112 484.673 201.162 484.704 201.204 484.743C201.246 484.782 201.28 484.829 201.302 484.88C201.325 484.931 201.337 484.986 201.337 485.041V487.172H208.123V485.041C208.123 484.986 208.135 484.931 208.157 484.88C208.18 484.829 208.213 484.782 208.256 484.743C208.298 484.704 208.348 484.673 208.403 484.651C208.458 484.63 208.517 484.62 208.576 484.62H219.439C219.499 484.62 219.558 484.63 219.613 484.651C219.668 484.673 219.718 484.704 219.76 484.743C219.802 484.782 219.835 484.829 219.858 484.88C219.881 484.931 219.892 484.986 219.892 485.041V487.172H226.687V485.041C226.687 484.986 226.699 484.931 226.721 484.88C226.744 484.829 226.777 484.782 226.82 484.743C226.862 484.704 226.912 484.673 226.967 484.651C227.022 484.63 227.081 484.62 227.14 484.62H238.003C238.063 484.62 238.122 484.63 238.177 484.651C238.232 484.673 238.282 484.704 238.324 484.743C238.366 484.782 238.399 484.829 238.422 484.88C238.445 484.931 238.456 484.986 238.456 485.041V487.172H245.243V485.041C245.243 484.986 245.254 484.931 245.277 484.88C245.3 484.829 245.333 484.782 245.375 484.743C245.417 484.704 245.467 484.673 245.522 484.651C245.577 484.63 245.636 484.62 245.696 484.62H256.559C256.619 484.62 256.678 484.63 256.733 484.651C256.788 484.673 256.838 484.704 256.88 484.743C256.922 484.782 256.955 484.829 256.978 484.88C257.001 484.931 257.012 484.986 257.012 485.041V487.172H263.799V485.041C263.799 484.986 263.81 484.931 263.833 484.88C263.856 484.829 263.889 484.782 263.931 484.743C263.973 484.704 264.023 484.673 264.078 484.651C264.133 484.63 264.192 484.62 264.252 484.62H275.115C275.175 484.62 275.234 484.63 275.289 484.651C275.344 484.673 275.394 484.704 275.436 484.743C275.478 484.782 275.511 484.829 275.534 484.88C275.557 484.931 275.568 484.986 275.568 485.041V487.172H282.363V485.041C282.363 484.986 282.374 484.931 282.397 484.88C282.42 484.829 282.453 484.782 282.495 484.743C282.537 484.704 282.587 484.673 282.642 484.651C282.697 484.63 282.756 484.62 282.816 484.62H293.679C293.739 484.62 293.798 484.63 293.853 484.651C293.908 484.673 293.958 484.704 294 484.743C294.042 484.782 294.075 484.829 294.098 484.88C294.121 484.931 294.132 484.986 294.132 485.041V487.172H300.919V485.041C300.919 484.986 300.93 484.931 300.953 484.88C300.976 484.829 301.009 484.782 301.051 484.743C301.093 484.704 301.143 484.673 301.198 484.651C301.253 484.63 301.312 484.62 301.372 484.62H386.467C386.526 484.62 386.585 484.63 386.64 484.651C386.695 484.673 386.745 484.704 386.787 484.743C386.829 484.782 386.863 484.829 386.885 484.88C386.908 484.931 386.92 484.986 386.92 485.041V487.172H393.714V485.041C393.714 484.986 393.726 484.931 393.749 484.88C393.771 484.829 393.805 484.782 393.847 484.743C393.889 484.704 393.939 484.673 393.994 484.651C394.049 484.63 394.108 484.62 394.167 484.62H405.031C405.15 484.621 405.265 484.665 405.35 484.744C405.434 484.823 405.483 484.93 405.484 485.041V487.172H412.27V485.041C412.27 484.986 412.282 484.931 412.305 484.88C412.327 484.829 412.361 484.782 412.403 484.743C412.445 484.704 412.495 484.673 412.55 484.651C412.605 484.63 412.664 484.62 412.723 484.62H423.587C423.646 484.62 423.705 484.63 423.76 484.651C423.815 484.673 423.865 484.704 423.907 484.743C423.949 484.782 423.983 484.829 424.005 484.88C424.028 484.931 424.04 484.986 424.04 485.041V487.172H430.826V485.041C430.826 484.986 430.838 484.931 430.86 484.88C430.883 484.829 430.917 484.782 430.959 484.743C431.001 484.704 431.051 484.673 431.106 484.651C431.161 484.63 431.22 484.62 431.279 484.62H442.143C442.202 484.62 442.261 484.63 442.316 484.651C442.371 484.673 442.421 484.704 442.463 484.743C442.505 484.782 442.538 484.829 442.561 484.88C442.584 484.931 442.596 484.986 442.596 485.041V487.172H449.39V485.041C449.39 484.986 449.402 484.931 449.424 484.88C449.447 484.829 449.481 484.782 449.523 484.743C449.565 484.704 449.615 484.673 449.67 484.651C449.725 484.63 449.784 484.62 449.843 484.62H460.707C460.825 484.621 460.939 484.666 461.022 484.745C461.106 484.824 461.152 484.931 461.151 485.041V487.172H467.946V485.041C467.946 484.986 467.958 484.931 467.98 484.88C468.003 484.829 468.036 484.782 468.079 484.743C468.121 484.704 468.171 484.673 468.226 484.651C468.281 484.63 468.34 484.62 468.399 484.62H479.262C479.322 484.62 479.381 484.63 479.436 484.651C479.491 484.673 479.541 484.704 479.583 484.743C479.625 484.782 479.658 484.829 479.681 484.88C479.704 484.931 479.716 484.986 479.715 485.041V487.172H486.502V485.041C486.502 484.986 486.514 484.931 486.536 484.88C486.559 484.829 486.592 484.782 486.634 484.743C486.676 484.704 486.726 484.673 486.781 484.651C486.836 484.63 486.895 484.62 486.955 484.62H497.818C497.878 484.62 497.937 484.63 497.992 484.651C498.047 484.673 498.097 484.704 498.139 484.743C498.181 484.782 498.214 484.829 498.237 484.88C498.26 484.931 498.271 484.986 498.271 485.041V487.172H529.955C531.382 487.172 532.795 487.433 534.113 487.941C535.431 488.45 536.629 489.194 537.638 490.134C538.647 491.073 539.447 492.188 539.993 493.415C540.538 494.642 540.819 495.957 540.819 497.285V497.285Z" fill="#3F3D56"/>
<path id="Vector_14" d="M649.914 506H57V507.506H649.914V506Z" fill="#3F3D56"/>
</g>
<g id="clock">
<path id="Vector_15" d="M80.5047 173.28C115.949 173.28 144.682 146.532 144.682 113.535C144.682 80.539 115.949 53.7902 80.5047 53.7902C45.0604 53.7902 16.3272 80.539 16.3272 113.535C16.3272 146.532 45.0604 173.28 80.5047 173.28Z" fill="#F9A826"/>
<path id="Vector_16" d="M102.87 42.5382C97.0587 41.8502 91.1776 41.8502 85.3666 42.5382C72.4208 44.1206 60.2344 49.1271 50.2532 56.9636C40.2721 64.8001 32.9153 75.1376 29.0558 86.7496C27.3005 92.0415 26.3064 97.5267 26.0997 103.062C26.0706 103.831 26.0511 104.61 26.0511 105.388C26.0691 122.189 33.2462 138.296 46.0074 150.176C58.7685 162.056 76.0712 168.738 94.1182 168.754C95.567 168.754 97.0158 168.709 98.4453 168.628C101.801 168.432 105.136 168.002 108.422 167.342C124.116 164.2 138.112 155.997 147.939 144.18C157.766 132.363 162.791 117.694 162.127 102.763C161.463 87.8313 155.152 73.5989 144.309 62.5792C133.466 51.5594 118.789 44.4612 102.87 42.5382H102.87ZM115.423 163.667H115.413C109.932 165.408 104.226 166.465 98.4452 166.808C97.0158 166.899 95.5669 166.944 94.1181 166.944C76.588 166.924 59.7819 160.432 47.3863 148.893C34.9906 137.353 28.0172 121.708 27.9958 105.388C27.9958 104.61 28.0153 103.831 28.0444 103.062C28.7129 87.1577 35.9639 72.1107 48.2796 61.0708C60.5954 50.0309 77.021 43.8538 94.1181 43.8327C109.783 43.8335 124.94 49.0116 136.886 58.4445C148.833 67.8774 156.795 80.9523 159.353 95.3399C161.911 109.728 158.899 124.493 150.854 137.006C142.809 149.52 130.253 158.968 115.423 163.667H115.423Z" fill="#3F3D56"/>
<path id="Vector_17" d="M95.0905 47.4536H93.1457V60.1268H95.0905V47.4536Z" fill="#3F3D56"/>
<path id="Vector_18" d="M127.81 72.7435L129.185 74.0237L138.811 65.0624L137.436 63.7822L127.81 72.7435Z" fill="#3F3D56"/>
<path id="Vector_19" d="M142.737 104.483V106.294H156.351V104.483H142.737Z" fill="#3F3D56"/>
<path id="Vector_20" d="M129.185 136.753L127.81 138.033L137.436 146.994L138.811 145.714L129.185 136.753Z" fill="#3F3D56"/>
<path id="Vector_21" d="M95.0905 150.65H93.1457V163.323H95.0905V150.65Z" fill="#3F3D56"/>
<path id="Vector_22" d="M97.0353 101.767C96.1937 101.18 95.1701 100.862 94.1181 100.862C93.0662 100.862 92.0425 101.18 91.201 101.767C90.6248 102.175 90.1505 102.694 89.8105 103.288C89.3797 104.054 89.1934 104.918 89.2735 105.779C89.3536 106.64 89.6968 107.462 90.2626 108.147C90.8284 108.832 91.593 109.352 92.4662 109.646C93.3394 109.939 94.2846 109.994 95.1901 109.804C96.0956 109.613 96.9236 109.185 97.5761 108.57C98.2287 107.956 98.6786 107.18 98.8727 106.335C99.0667 105.49 98.9969 104.61 98.6713 103.801C98.3457 102.992 97.778 102.286 97.0353 101.767H97.0353ZM94.1181 108.104C93.3451 108.102 92.6045 107.815 92.0579 107.306C91.5113 106.797 91.2032 106.108 91.201 105.388C91.2047 104.839 91.3842 104.303 91.7164 103.849C92.0013 103.465 92.3878 103.156 92.8387 102.952C93.2895 102.747 93.7894 102.655 94.29 102.683C94.7905 102.711 95.2748 102.859 95.696 103.112C96.1172 103.365 96.4611 103.716 96.6943 104.129C96.9276 104.542 97.0424 105.004 97.0276 105.471C97.0128 105.938 96.869 106.393 96.6099 106.792C96.3509 107.192 95.9854 107.523 95.5489 107.753C95.1124 107.982 94.6196 108.103 94.1181 108.104V108.104Z" fill="#3F3D56"/>
<path id="Vector_23" d="M102.87 26.6334H85.3666V42.9275H102.87V26.6334Z" fill="#3F3D56"/>
<path id="Vector_24" d="M94.1181 29.349C107.007 29.349 117.455 25.9041 117.455 21.6546C117.455 17.4051 107.007 13.9601 94.1181 13.9601C81.2293 13.9601 70.7808 17.4051 70.7808 21.6546C70.7808 25.9041 81.2293 29.349 94.1181 29.349Z" fill="#3F3D56"/>
<path id="Vector_25" d="M97.0353 70.9896H91.201V101.767H97.0353V70.9896Z" fill="#3F3D56"/>
<path id="Vector_26" d="M186.809 165.996H4V167.807H186.809V165.996Z" fill="#3F3D56"/>
<path id="Vector_27" d="M50.8005 63.7822L49.4254 65.0624L59.0515 74.0237L60.4267 72.7435L50.8005 63.7822Z" fill="#3F3D56"/>
<path id="Vector_28" d="M31.8854 104.483V106.294H45.4988V104.483H31.8854Z" fill="#3F3D56"/>
<path id="Vector_29" d="M49.4253 145.714L50.8005 146.994L60.4266 138.033L59.0515 136.753L49.4253 145.714Z" fill="#3F3D56"/>
</g>
<g id="left_plant">
<path id="Vector_30" d="M91.7207 497.915H69.0719V519H91.7207V497.915Z" fill="#D0CDE1"/>
<path id="Vector_31" d="M77.9728 481.349V506.952H105.475V481.349H77.9728ZM104.278 505.837H79.1619V482.464H104.278V505.837Z" fill="#3F3D56"/>
<path id="Vector_32" d="M125.813 451.628C126.568 475.687 111.468 484.504 92.517 485.02C92.0768 485.032 91.6386 485.039 91.2024 485.042C90.3235 485.048 89.4532 485.034 88.5915 485.001C71.4525 484.338 57.886 475.869 57.184 453.494C56.4577 430.339 87.3304 400.253 89.6467 398.028L89.6509 398.026C89.7389 397.941 89.7839 397.898 89.7839 397.898C89.7839 397.898 125.059 427.571 125.813 451.628Z" fill="#D0CDE1"/>
<path id="Vector_33" d="M91.1526 481.373L103.191 464.708L91.1772 483.166L91.2023 485.042C90.3235 485.048 89.4532 485.034 88.5915 485.001L89.1885 460.895L89.1722 460.709L89.1942 460.673L89.2513 458.395L76.0682 440.577L89.2358 456.69L89.2825 457.172L89.7335 438.959L78.3468 420.486L89.7659 435.76L89.6467 398.028L89.647 397.902L89.6508 398.026L90.4067 427.764L100.784 415.684L90.4407 430.325L90.6672 446.616L100.217 430.717L90.7023 449.011L90.8284 458.07L104.716 435.922L90.8706 461.23L91.1526 481.373Z" fill="#3F3D56"/>
</g>
<g id="right_plant">
<path id="Vector_34" d="M615.88 497.915H593.231V519H615.88V497.915Z" fill="#D0CDE1"/>
<path id="Vector_35" d="M602.132 481.349V506.952H629.635V481.349H602.132ZM628.437 505.837H603.321V482.464H628.437V505.837Z" fill="#3F3D56"/>
<path id="Vector_36" d="M649.973 451.628C650.728 475.687 635.627 484.504 616.676 485.02C616.236 485.032 615.798 485.039 615.362 485.042C614.483 485.048 613.613 485.034 612.751 485.001C595.612 484.338 582.045 475.869 581.343 453.494C580.617 430.339 611.49 400.253 613.806 398.028L613.81 398.026C613.898 397.941 613.943 397.898 613.943 397.898C613.943 397.898 649.218 427.571 649.973 451.628Z" fill="#D0CDE1"/>
<path id="Vector_37" d="M615.312 481.373L627.35 464.708L615.337 483.166L615.362 485.042C614.483 485.048 613.613 485.034 612.751 485.001L613.348 460.895L613.332 460.709L613.354 460.673L613.411 458.395L600.228 440.577L613.395 456.69L613.442 457.172L613.893 438.959L602.506 420.486L613.925 435.76L613.806 398.028L613.806 397.902L613.81 398.026L614.566 427.764L624.944 415.684L614.6 430.325L614.827 446.616L624.376 430.717L614.862 449.011L614.988 458.07L628.875 435.922L615.03 461.23L615.312 481.373Z" fill="#3F3D56"/>
</g>
</g>
</g>
<defs>
<filter id="filter0_d" x="0" y="0" width="654" height="527" filterUnits="userSpaceOnUse" color-interpolation-filters="sRGB">
<feFlood flood-opacity="0" result="BackgroundImageFix"/>
<feColorMatrix in="SourceAlpha" type="matrix" values="0 0 0 0 0 0 0 0 0 0 0 0 0 0 0 0 0 0 127 0"/>
<feOffset dy="4"/>
<feGaussianBlur stdDeviation="2"/>
<feColorMatrix type="matrix" values="0 0 0 0 0 0 0 0 0 0 0 0 0 0 0 0 0 0 0.25 0"/>
<feBlend mode="normal" in2="BackgroundImageFix" result="effect1_dropShadow"/>
<feBlend mode="normal" in="SourceGraphic" in2="effect1_dropShadow" result="shape"/>
</filter>
</defs>
</svg>
